<mxfile host="app.diagrams.net" agent="Mozilla/5.0 (Macintosh; Intel Mac OS X 10_15_7) AppleWebKit/537.36 (KHTML, like Gecko) Chrome/128.0.0.0 Safari/537.36" version="26.0.6">
  <diagram name="Page-1" id="5MwJy7MfU5jN0rsetCYZ">
    <mxGraphModel dx="3728" dy="2159" grid="1" gridSize="10" guides="1" tooltips="1" connect="1" arrows="1" fold="1" page="1" pageScale="1" pageWidth="827" pageHeight="1169" math="0" shadow="0">
      <root>
        <mxCell id="0" />
        <mxCell id="1" parent="0" />
        <mxCell id="l7nKoDrUYivtg7SMq4b7-28" style="edgeStyle=orthogonalEdgeStyle;rounded=0;orthogonalLoop=1;jettySize=auto;html=1;exitX=1;exitY=0.51;exitDx=0;exitDy=0;exitPerimeter=0;entryX=0;entryY=0.5;entryDx=0;entryDy=0;strokeWidth=2;strokeColor=#000099;" parent="1" source="l7nKoDrUYivtg7SMq4b7-1" target="l7nKoDrUYivtg7SMq4b7-26" edge="1">
          <mxGeometry relative="1" as="geometry" />
        </mxCell>
        <mxCell id="l7nKoDrUYivtg7SMq4b7-1" value="" style="sketch=0;aspect=fixed;pointerEvents=1;shadow=0;dashed=0;html=1;strokeColor=none;labelPosition=center;verticalLabelPosition=bottom;verticalAlign=top;align=center;fillColor=#00188D;shape=mxgraph.azure.queue_generic" parent="1" vertex="1">
          <mxGeometry x="300" y="180" width="120" height="36" as="geometry" />
        </mxCell>
        <mxCell id="l7nKoDrUYivtg7SMq4b7-2" value="" style="verticalLabelPosition=bottom;html=1;verticalAlign=top;align=center;strokeColor=none;fillColor=#00188D;shape=mxgraph.azure.server_rack;" parent="1" vertex="1">
          <mxGeometry x="70" y="208" width="70" height="80" as="geometry" />
        </mxCell>
        <mxCell id="l7nKoDrUYivtg7SMq4b7-3" value="" style="verticalLabelPosition=bottom;html=1;verticalAlign=top;align=center;strokeColor=none;fillColor=#00188D;shape=mxgraph.azure.server_rack;" parent="1" vertex="1">
          <mxGeometry x="720" y="230" width="70" height="84" as="geometry" />
        </mxCell>
        <mxCell id="l7nKoDrUYivtg7SMq4b7-23" style="edgeStyle=orthogonalEdgeStyle;rounded=0;orthogonalLoop=1;jettySize=auto;html=1;entryX=0.5;entryY=0;entryDx=0;entryDy=0;strokeWidth=2;strokeColor=#000099;" parent="1" source="l7nKoDrUYivtg7SMq4b7-5" target="l7nKoDrUYivtg7SMq4b7-20" edge="1">
          <mxGeometry relative="1" as="geometry">
            <mxPoint x="120" y="50" as="sourcePoint" />
          </mxGeometry>
        </mxCell>
        <mxCell id="l7nKoDrUYivtg7SMq4b7-5" value="" style="html=1;verticalLabelPosition=bottom;align=center;labelBackgroundColor=#ffffff;verticalAlign=top;strokeWidth=2;strokeColor=#000066;shadow=0;dashed=0;shape=mxgraph.ios7.icons.data;" parent="1" vertex="1">
          <mxGeometry x="-140" y="-90.45" width="84" height="110.9" as="geometry" />
        </mxCell>
        <mxCell id="l7nKoDrUYivtg7SMq4b7-8" value="&lt;h1 style=&quot;margin-top: 0px;&quot;&gt;Producer (Golang)&lt;/h1&gt;&lt;p&gt;&lt;span style=&quot;font-size: medium;&quot;&gt;Monitors the database for changes and pushes updated data to the queue. Data is only added to the queue if it has been modified or updated, ensuring efficient processing.&lt;/span&gt;&lt;br&gt;&lt;/p&gt;" style="text;html=1;whiteSpace=wrap;overflow=hidden;rounded=0;" parent="1" vertex="1">
          <mxGeometry x="70" y="300" width="180" height="240" as="geometry" />
        </mxCell>
        <mxCell id="l7nKoDrUYivtg7SMq4b7-9" value="&lt;h1 style=&quot;margin-top: 0px;&quot;&gt;Consumer (Python)&lt;/h1&gt;&lt;p&gt;&lt;span style=&quot;font-size: medium;&quot;&gt;Consumes messages from the queue asynchronously. Processes the data and forwards it to the WebSocket for real-time delivery to connected users.&lt;/span&gt;&lt;br&gt;&lt;/p&gt;" style="text;html=1;whiteSpace=wrap;overflow=hidden;rounded=0;" parent="1" vertex="1">
          <mxGeometry x="720" y="340" width="180" height="240" as="geometry" />
        </mxCell>
        <mxCell id="l7nKoDrUYivtg7SMq4b7-10" value="&lt;h1 style=&quot;margin-top: 0px;&quot;&gt;Queue&lt;/h1&gt;&lt;p&gt;&lt;span style=&quot;font-size: medium;&quot;&gt;Serves as an intermediate buffer for event streams. Ensures reliable and orderly delivery of data from the producer to the consumer, supporting asynchronous communication.&lt;/span&gt;&lt;br&gt;&lt;/p&gt;" style="text;html=1;whiteSpace=wrap;overflow=hidden;rounded=0;" parent="1" vertex="1">
          <mxGeometry x="280" y="230" width="180" height="240" as="geometry" />
        </mxCell>
        <mxCell id="l7nKoDrUYivtg7SMq4b7-12" value="" style="sketch=0;outlineConnect=0;fontColor=#232F3E;gradientColor=none;fillColor=#000099;strokeColor=none;dashed=0;verticalLabelPosition=bottom;verticalAlign=top;align=center;html=1;fontSize=12;fontStyle=0;aspect=fixed;pointerEvents=1;shape=mxgraph.aws4.user;" parent="1" vertex="1">
          <mxGeometry x="1370" y="138" width="78" height="78" as="geometry" />
        </mxCell>
        <mxCell id="l7nKoDrUYivtg7SMq4b7-14" value="&lt;h1 style=&quot;margin-top: 0px;&quot;&gt;Database&lt;/h1&gt;&lt;p&gt;&lt;span style=&quot;font-size: medium;&quot;&gt;MongoDB cloud database storing application data. The database generates event streams whenever the data is updated, ensuring real-time data propagation.&lt;/span&gt;&lt;br&gt;&lt;/p&gt;" style="text;html=1;whiteSpace=wrap;overflow=hidden;rounded=0;" parent="1" vertex="1">
          <mxGeometry x="-46" y="-130" width="186" height="210" as="geometry" />
        </mxCell>
        <mxCell id="l7nKoDrUYivtg7SMq4b7-16" value="" style="edgeStyle=orthogonalEdgeStyle;rounded=0;orthogonalLoop=1;jettySize=auto;html=1;exitX=1;exitY=0.5;exitDx=0;exitDy=0;exitPerimeter=0;strokeWidth=2;strokeColor=#000099;" parent="1" source="l7nKoDrUYivtg7SMq4b7-3" target="l7nKoDrUYivtg7SMq4b7-15" edge="1">
          <mxGeometry relative="1" as="geometry">
            <mxPoint x="640" y="250" as="sourcePoint" />
            <mxPoint x="859" y="100" as="targetPoint" />
          </mxGeometry>
        </mxCell>
        <mxCell id="l7nKoDrUYivtg7SMq4b7-17" style="edgeStyle=orthogonalEdgeStyle;rounded=0;orthogonalLoop=1;jettySize=auto;html=1;strokeColor=#000099;strokeWidth=2;" parent="1" source="l7nKoDrUYivtg7SMq4b7-15" target="l7nKoDrUYivtg7SMq4b7-12" edge="1">
          <mxGeometry relative="1" as="geometry" />
        </mxCell>
        <mxCell id="l7nKoDrUYivtg7SMq4b7-15" value="" style="verticalLabelPosition=bottom;aspect=fixed;html=1;verticalAlign=top;fillColor=#d5e8d4;align=center;outlineConnect=0;shape=mxgraph.fluid_power.x11870;points=[[0.5,1,0]];rotation=90;strokeColor=#82b366;strokeWidth=2;" parent="1" vertex="1">
          <mxGeometry x="930" y="208" width="37.44" height="56.18" as="geometry" />
        </mxCell>
        <mxCell id="l7nKoDrUYivtg7SMq4b7-18" value="&lt;h1 style=&quot;margin-top: 0px;&quot;&gt;Websocket&lt;/h1&gt;&lt;p&gt;&lt;span style=&quot;font-size: medium;&quot;&gt;Enables real-time, bidirectional communication with users. Streams processed data directly to users, ensuring seamless and instantaneous updates.&lt;/span&gt;&lt;br&gt;&lt;/p&gt;" style="text;html=1;whiteSpace=wrap;overflow=hidden;rounded=0;" parent="1" vertex="1">
          <mxGeometry x="950" y="270" width="180" height="213.82" as="geometry" />
        </mxCell>
        <mxCell id="l7nKoDrUYivtg7SMq4b7-20" value="Event Streams" style="shape=rect;fillColor=#0F62FE;aspect=fixed;resizable=0;labelPosition=center;verticalLabelPosition=bottom;align=center;verticalAlign=top;strokeColor=none;fontSize=14;" parent="1" vertex="1">
          <mxGeometry x="-188" y="130" width="48" height="48" as="geometry" />
        </mxCell>
        <mxCell id="l7nKoDrUYivtg7SMq4b7-21" value="" style="fillColor=#ffffff;strokeColor=none;dashed=0;outlineConnect=0;html=1;labelPosition=center;verticalLabelPosition=bottom;verticalAlign=top;part=1;movable=0;resizable=0;rotatable=0;shape=mxgraph.ibm_cloud.ibm-cloud--event-streams" parent="l7nKoDrUYivtg7SMq4b7-20" vertex="1">
          <mxGeometry width="24" height="24" relative="1" as="geometry">
            <mxPoint x="12" y="12" as="offset" />
          </mxGeometry>
        </mxCell>
        <mxCell id="l7nKoDrUYivtg7SMq4b7-25" style="edgeStyle=orthogonalEdgeStyle;rounded=0;orthogonalLoop=1;jettySize=auto;html=1;exitX=0.5;exitY=1;exitDx=0;exitDy=0;entryX=0.5;entryY=0;entryDx=0;entryDy=0;entryPerimeter=0;strokeWidth=2;strokeColor=#000099;" parent="1" source="l7nKoDrUYivtg7SMq4b7-20" target="l7nKoDrUYivtg7SMq4b7-2" edge="1">
          <mxGeometry relative="1" as="geometry">
            <Array as="points">
              <mxPoint x="-70" y="178" />
              <mxPoint x="-70" y="198" />
              <mxPoint x="-35" y="198" />
              <mxPoint x="-35" y="188" />
              <mxPoint x="105" y="188" />
            </Array>
          </mxGeometry>
        </mxCell>
        <mxCell id="l7nKoDrUYivtg7SMq4b7-26" value="Event Streams" style="shape=rect;fillColor=#0F62FE;aspect=fixed;resizable=0;labelPosition=center;verticalLabelPosition=bottom;align=center;verticalAlign=top;strokeColor=none;fontSize=14;" parent="1" vertex="1">
          <mxGeometry x="510" y="320" width="48" height="48" as="geometry" />
        </mxCell>
        <mxCell id="l7nKoDrUYivtg7SMq4b7-27" value="" style="fillColor=#ffffff;strokeColor=none;dashed=0;outlineConnect=0;html=1;labelPosition=center;verticalLabelPosition=bottom;verticalAlign=top;part=1;movable=0;resizable=0;rotatable=0;shape=mxgraph.ibm_cloud.ibm-cloud--event-streams" parent="l7nKoDrUYivtg7SMq4b7-26" vertex="1">
          <mxGeometry width="24" height="24" relative="1" as="geometry">
            <mxPoint x="12" y="12" as="offset" />
          </mxGeometry>
        </mxCell>
        <mxCell id="l7nKoDrUYivtg7SMq4b7-30" style="edgeStyle=orthogonalEdgeStyle;rounded=0;orthogonalLoop=1;jettySize=auto;html=1;exitX=1;exitY=0.5;exitDx=0;exitDy=0;entryX=0;entryY=0.5;entryDx=0;entryDy=0;entryPerimeter=0;strokeColor=#000099;strokeWidth=2;" parent="1" source="l7nKoDrUYivtg7SMq4b7-26" target="l7nKoDrUYivtg7SMq4b7-3" edge="1">
          <mxGeometry relative="1" as="geometry" />
        </mxCell>
        <mxCell id="l7nKoDrUYivtg7SMq4b7-31" value="&lt;h1 style=&quot;margin-top: 0px;&quot;&gt;Event&lt;/h1&gt;&lt;p&gt;&lt;font style=&quot;font-weight: normal;&quot; face=&quot;Helvetica&quot;&gt;&lt;font&gt;Asynchronous&lt;/font&gt;&lt;span style=&quot;font-size: medium;&quot;&gt; &lt;/span&gt;&lt;font&gt;Generator&lt;/font&gt;&amp;nbsp;function for streaming, from RabbitMQ to the Websocket.&lt;/font&gt;&lt;/p&gt;" style="text;html=1;whiteSpace=wrap;overflow=hidden;rounded=0;" parent="1" vertex="1">
          <mxGeometry x="480" y="400" width="180" height="120" as="geometry" />
        </mxCell>
        <mxCell id="l7nKoDrUYivtg7SMq4b7-32" value="&lt;h1 style=&quot;margin-top: 0px;&quot;&gt;Event&lt;/h1&gt;&lt;p&gt;&lt;span style=&quot;font-size: medium;&quot;&gt;Represents the stream of data changes in the system, flowing from the database through the producer.&lt;/span&gt;&lt;br&gt;&lt;/p&gt;" style="text;html=1;whiteSpace=wrap;overflow=hidden;rounded=0;" parent="1" vertex="1">
          <mxGeometry x="-210" y="208" width="180" height="150" as="geometry" />
        </mxCell>
        <mxCell id="l7nKoDrUYivtg7SMq4b7-33" value="&lt;h1 style=&quot;margin-top: 0px;&quot;&gt;Admin&lt;/h1&gt;&lt;p&gt;Data are being display in real-time to the user.&lt;/p&gt;" style="text;html=1;whiteSpace=wrap;overflow=hidden;rounded=0;" parent="1" vertex="1">
          <mxGeometry x="1370" y="6" width="180" height="120" as="geometry" />
        </mxCell>
        <mxCell id="os3eVGEmdC3wrFbA3sGX-1" value="" style="verticalLabelPosition=bottom;html=1;verticalAlign=top;align=center;strokeColor=none;fillColor=#990099;shape=mxgraph.azure.server_rack;" parent="1" vertex="1">
          <mxGeometry x="930" y="-114" width="70" height="84" as="geometry" />
        </mxCell>
        <mxCell id="os3eVGEmdC3wrFbA3sGX-7" value="&lt;h1 style=&quot;margin-top: 0px;&quot;&gt;Producer (Python)&lt;/h1&gt;&lt;p&gt;&lt;span style=&quot;font-size: medium;&quot;&gt;Monitors the database for changes and pushes updated data to the queue. Data is only added to the queue if it has been modified or updated, ensuring efficient processing.&lt;/span&gt;&lt;br&gt;&lt;/p&gt;" style="text;html=1;whiteSpace=wrap;overflow=hidden;rounded=0;" parent="1" vertex="1">
          <mxGeometry x="920" y="-380" width="180" height="250" as="geometry" />
        </mxCell>
        <mxCell id="os3eVGEmdC3wrFbA3sGX-8" value="" style="verticalLabelPosition=bottom;aspect=fixed;html=1;verticalAlign=top;fillColor=#d5e8d4;align=center;outlineConnect=0;shape=mxgraph.fluid_power.x11870;points=[[0.5,1,0]];rotation=-90;strokeColor=#82b366;strokeWidth=2;" parent="1" vertex="1">
          <mxGeometry x="1090" y="100.91" width="37.44" height="56.18" as="geometry" />
        </mxCell>
        <mxCell id="os3eVGEmdC3wrFbA3sGX-9" style="edgeStyle=orthogonalEdgeStyle;rounded=0;orthogonalLoop=1;jettySize=auto;html=1;entryX=0.5;entryY=1;entryDx=0;entryDy=0;entryPerimeter=0;strokeColor=#990099;strokeWidth=2;" parent="1" source="l7nKoDrUYivtg7SMq4b7-12" target="os3eVGEmdC3wrFbA3sGX-8" edge="1">
          <mxGeometry relative="1" as="geometry" />
        </mxCell>
        <mxCell id="os3eVGEmdC3wrFbA3sGX-10" style="edgeStyle=orthogonalEdgeStyle;rounded=0;orthogonalLoop=1;jettySize=auto;html=1;entryX=1;entryY=0.5;entryDx=0;entryDy=0;entryPerimeter=0;strokeColor=#990099;strokeWidth=2;" parent="1" source="os3eVGEmdC3wrFbA3sGX-8" target="os3eVGEmdC3wrFbA3sGX-1" edge="1">
          <mxGeometry relative="1" as="geometry" />
        </mxCell>
        <mxCell id="os3eVGEmdC3wrFbA3sGX-21" style="edgeStyle=orthogonalEdgeStyle;rounded=0;orthogonalLoop=1;jettySize=auto;html=1;strokeWidth=2;strokeColor=#990099;entryX=1;entryY=0.5;entryDx=0;entryDy=0;" parent="1" source="os3eVGEmdC3wrFbA3sGX-11" target="os3eVGEmdC3wrFbA3sGX-19" edge="1">
          <mxGeometry relative="1" as="geometry">
            <mxPoint x="470.0000000000002" y="-150.00000000000023" as="targetPoint" />
          </mxGeometry>
        </mxCell>
        <mxCell id="os3eVGEmdC3wrFbA3sGX-11" value="" style="verticalLabelPosition=bottom;html=1;verticalAlign=top;align=center;strokeColor=none;fillColor=#990099;shape=mxgraph.azure.server_rack;" parent="1" vertex="1">
          <mxGeometry x="260" y="-174.45" width="70" height="84" as="geometry" />
        </mxCell>
        <mxCell id="os3eVGEmdC3wrFbA3sGX-17" style="edgeStyle=orthogonalEdgeStyle;rounded=0;orthogonalLoop=1;jettySize=auto;html=1;entryX=1;entryY=0.5;entryDx=0;entryDy=0;strokeWidth=2;strokeColor=#990099;" parent="1" source="os3eVGEmdC3wrFbA3sGX-12" target="os3eVGEmdC3wrFbA3sGX-15" edge="1">
          <mxGeometry relative="1" as="geometry" />
        </mxCell>
        <mxCell id="os3eVGEmdC3wrFbA3sGX-12" value="" style="sketch=0;aspect=fixed;pointerEvents=1;shadow=0;dashed=0;html=1;strokeColor=none;labelPosition=center;verticalLabelPosition=bottom;verticalAlign=top;align=center;fillColor=#000099;shape=mxgraph.azure.queue_generic;flipH=1;" parent="1" vertex="1">
          <mxGeometry x="720" y="27" width="120" height="36" as="geometry" />
        </mxCell>
        <mxCell id="os3eVGEmdC3wrFbA3sGX-13" style="edgeStyle=orthogonalEdgeStyle;rounded=0;orthogonalLoop=1;jettySize=auto;html=1;entryX=0;entryY=0.5;entryDx=0;entryDy=0;entryPerimeter=0;strokeColor=#990099;strokeWidth=2;" parent="1" source="os3eVGEmdC3wrFbA3sGX-1" target="os3eVGEmdC3wrFbA3sGX-12" edge="1">
          <mxGeometry relative="1" as="geometry" />
        </mxCell>
        <mxCell id="os3eVGEmdC3wrFbA3sGX-15" value="Event Streams" style="shape=rect;fillColor=#0F62FE;aspect=fixed;resizable=0;labelPosition=center;verticalLabelPosition=bottom;align=center;verticalAlign=top;strokeColor=none;fontSize=14;" parent="1" vertex="1">
          <mxGeometry x="490" y="-98" width="48" height="48" as="geometry" />
        </mxCell>
        <mxCell id="os3eVGEmdC3wrFbA3sGX-16" value="" style="fillColor=#ffffff;strokeColor=none;dashed=0;outlineConnect=0;html=1;labelPosition=center;verticalLabelPosition=bottom;verticalAlign=top;part=1;movable=0;resizable=0;rotatable=0;shape=mxgraph.ibm_cloud.ibm-cloud--event-streams" parent="os3eVGEmdC3wrFbA3sGX-15" vertex="1">
          <mxGeometry width="24" height="24" relative="1" as="geometry">
            <mxPoint x="12" y="12" as="offset" />
          </mxGeometry>
        </mxCell>
        <mxCell id="os3eVGEmdC3wrFbA3sGX-18" style="edgeStyle=orthogonalEdgeStyle;rounded=0;orthogonalLoop=1;jettySize=auto;html=1;exitX=0;exitY=0.5;exitDx=0;exitDy=0;entryX=1;entryY=0.5;entryDx=0;entryDy=0;entryPerimeter=0;strokeWidth=2;strokeColor=#990099;" parent="1" source="os3eVGEmdC3wrFbA3sGX-15" target="os3eVGEmdC3wrFbA3sGX-11" edge="1">
          <mxGeometry relative="1" as="geometry" />
        </mxCell>
        <mxCell id="os3eVGEmdC3wrFbA3sGX-19" value="Event Streams" style="shape=rect;fillColor=#0F62FE;aspect=fixed;resizable=0;labelPosition=center;verticalLabelPosition=bottom;align=center;verticalAlign=top;strokeColor=none;fontSize=14;" parent="1" vertex="1">
          <mxGeometry x="23" y="-250" width="48" height="48" as="geometry" />
        </mxCell>
        <mxCell id="os3eVGEmdC3wrFbA3sGX-20" value="" style="fillColor=#ffffff;strokeColor=none;dashed=0;outlineConnect=0;html=1;labelPosition=center;verticalLabelPosition=bottom;verticalAlign=top;part=1;movable=0;resizable=0;rotatable=0;shape=mxgraph.ibm_cloud.ibm-cloud--event-streams" parent="os3eVGEmdC3wrFbA3sGX-19" vertex="1">
          <mxGeometry width="24" height="24" relative="1" as="geometry">
            <mxPoint x="12" y="12" as="offset" />
          </mxGeometry>
        </mxCell>
        <mxCell id="os3eVGEmdC3wrFbA3sGX-22" style="edgeStyle=orthogonalEdgeStyle;rounded=0;orthogonalLoop=1;jettySize=auto;html=1;strokeWidth=2;strokeColor=#990099;entryX=0.512;entryY=0.05;entryDx=0;entryDy=0;entryPerimeter=0;" parent="1" source="os3eVGEmdC3wrFbA3sGX-19" target="l7nKoDrUYivtg7SMq4b7-5" edge="1">
          <mxGeometry relative="1" as="geometry">
            <mxPoint x="210" y="-30" as="targetPoint" />
          </mxGeometry>
        </mxCell>
        <mxCell id="os3eVGEmdC3wrFbA3sGX-23" value="&lt;h1 style=&quot;margin-top: 0px;&quot;&gt;Event&lt;/h1&gt;&lt;p&gt;&lt;span style=&quot;font-size: medium;&quot;&gt;Represents the stream of data changes in the system, flowing from the database through the producer.&lt;/span&gt;&lt;br&gt;&lt;/p&gt;" style="text;html=1;whiteSpace=wrap;overflow=hidden;rounded=0;" parent="1" vertex="1">
          <mxGeometry x="15" y="-422" width="180" height="150" as="geometry" />
        </mxCell>
        <mxCell id="os3eVGEmdC3wrFbA3sGX-24" value="&lt;h1 style=&quot;margin-top: 0px;&quot;&gt;Event&lt;/h1&gt;&lt;p&gt;&lt;font style=&quot;font-weight: normal;&quot; face=&quot;Helvetica&quot;&gt;&lt;font&gt;Asynchronous&lt;/font&gt;&lt;span style=&quot;font-size: medium;&quot;&gt; &lt;/span&gt;&lt;font&gt;Generator&lt;/font&gt;&amp;nbsp;function for streaming, from RabbitMQ to the Websocket.&lt;/font&gt;&lt;/p&gt;" style="text;html=1;whiteSpace=wrap;overflow=hidden;rounded=0;" parent="1" vertex="1">
          <mxGeometry x="490" y="-234" width="180" height="120" as="geometry" />
        </mxCell>
        <mxCell id="os3eVGEmdC3wrFbA3sGX-26" value="&lt;h1 style=&quot;margin-top: 0px;&quot;&gt;Consumer (Golang)&lt;/h1&gt;&lt;p&gt;&lt;span style=&quot;font-size: medium;&quot;&gt;Consumes messages from the queue asynchronously. Processes the data and forwards it to the WebSocket for real-time delivery to connected users.&lt;/span&gt;&lt;br&gt;&lt;/p&gt;" style="text;html=1;whiteSpace=wrap;overflow=hidden;rounded=0;" parent="1" vertex="1">
          <mxGeometry x="260" y="-422" width="180" height="240" as="geometry" />
        </mxCell>
        <mxCell id="os3eVGEmdC3wrFbA3sGX-27" value="&lt;h1 style=&quot;margin-top: 0px;&quot;&gt;Queue&lt;/h1&gt;&lt;p&gt;&lt;span style=&quot;font-size: medium;&quot;&gt;Serves as an intermediate buffer for event streams. Ensures reliable and orderly delivery of data from the producer to the consumer, supporting asynchronous communication.&lt;/span&gt;&lt;br&gt;&lt;/p&gt;" style="text;html=1;whiteSpace=wrap;overflow=hidden;rounded=0;" parent="1" vertex="1">
          <mxGeometry x="710" y="-220" width="180" height="240" as="geometry" />
        </mxCell>
        <mxCell id="os3eVGEmdC3wrFbA3sGX-28" value="&lt;h1 style=&quot;margin-top: 0px;&quot;&gt;Websocket&lt;/h1&gt;&lt;p&gt;&lt;span style=&quot;font-size: medium;&quot;&gt;Enables real-time, bidirectional communication with users. Streams processed data directly to users, ensuring seamless and instantaneous updates.&lt;/span&gt;&lt;br&gt;&lt;/p&gt;" style="text;html=1;whiteSpace=wrap;overflow=hidden;rounded=0;" parent="1" vertex="1">
          <mxGeometry x="1061" y="-100" width="180" height="213.82" as="geometry" />
        </mxCell>
        <mxCell id="apMaablia-Na0ZsLIkc0-1" value="" style="shape=image;html=1;verticalAlign=top;verticalLabelPosition=bottom;labelBackgroundColor=#ffffff;imageAspect=0;aspect=fixed;image=https://cdn1.iconfinder.com/data/icons/ionicons-fill-vol-2/512/logo-docker-128.png" parent="1" vertex="1">
          <mxGeometry x="260" y="-80" width="90" height="90" as="geometry" />
        </mxCell>
        <mxCell id="apMaablia-Na0ZsLIkc0-2" value="" style="shape=image;html=1;verticalAlign=top;verticalLabelPosition=bottom;labelBackgroundColor=#ffffff;imageAspect=0;aspect=fixed;image=https://cdn1.iconfinder.com/data/icons/ionicons-fill-vol-2/512/logo-docker-128.png" parent="1" vertex="1">
          <mxGeometry x="920" width="90" height="90" as="geometry" />
        </mxCell>
        <mxCell id="apMaablia-Na0ZsLIkc0-3" value="" style="shape=image;html=1;verticalAlign=top;verticalLabelPosition=bottom;labelBackgroundColor=#ffffff;imageAspect=0;aspect=fixed;image=https://cdn1.iconfinder.com/data/icons/ionicons-fill-vol-2/512/logo-docker-128.png" parent="1" vertex="1">
          <mxGeometry x="710" y="126" width="90" height="90" as="geometry" />
        </mxCell>
        <mxCell id="apMaablia-Na0ZsLIkc0-4" value="" style="shape=image;html=1;verticalAlign=top;verticalLabelPosition=bottom;labelBackgroundColor=#ffffff;imageAspect=0;aspect=fixed;image=https://cdn1.iconfinder.com/data/icons/ionicons-fill-vol-2/512/logo-docker-128.png" parent="1" vertex="1">
          <mxGeometry x="70" y="84" width="90" height="90" as="geometry" />
        </mxCell>
        <mxCell id="apMaablia-Na0ZsLIkc0-6" style="edgeStyle=orthogonalEdgeStyle;rounded=0;orthogonalLoop=1;jettySize=auto;html=1;entryX=0;entryY=0.5;entryDx=0;entryDy=0;entryPerimeter=0;strokeWidth=2;strokeColor=#000099;" parent="1" source="l7nKoDrUYivtg7SMq4b7-2" target="l7nKoDrUYivtg7SMq4b7-1" edge="1">
          <mxGeometry relative="1" as="geometry" />
        </mxCell>
        <mxCell id="pbQb53wRpqbdlfqOJr1x-1" value="" style="sketch=0;outlineConnect=0;fontColor=#232F3E;gradientColor=none;fillColor=#000099;strokeColor=none;dashed=0;verticalLabelPosition=bottom;verticalAlign=top;align=center;html=1;fontSize=12;fontStyle=0;aspect=fixed;pointerEvents=1;shape=mxgraph.aws4.user;" parent="1" vertex="1">
          <mxGeometry x="-1340" y="330" width="78" height="78" as="geometry" />
        </mxCell>
        <mxCell id="pbQb53wRpqbdlfqOJr1x-2" value="&lt;h1 style=&quot;margin-top: 0px;&quot;&gt;Users (USSD)&lt;/h1&gt;&lt;p&gt;User playing using the USSD.&lt;/p&gt;" style="text;html=1;whiteSpace=wrap;overflow=hidden;rounded=0;" parent="1" vertex="1">
          <mxGeometry x="-1380" y="240" width="180" height="80" as="geometry" />
        </mxCell>
        <mxCell id="pbQb53wRpqbdlfqOJr1x-3" value="&lt;font style=&quot;font-size: 18px;&quot;&gt;&lt;b&gt;SMS/Payment&lt;/b&gt;&lt;/font&gt;" style="whiteSpace=wrap;html=1;aspect=fixed;" parent="1" vertex="1">
          <mxGeometry x="-640" y="44.17999999999999" width="220" height="220" as="geometry" />
        </mxCell>
        <mxCell id="pbQb53wRpqbdlfqOJr1x-22" style="edgeStyle=orthogonalEdgeStyle;rounded=0;orthogonalLoop=1;jettySize=auto;html=1;" parent="1" source="pbQb53wRpqbdlfqOJr1x-4" target="pbQb53wRpqbdlfqOJr1x-3" edge="1">
          <mxGeometry relative="1" as="geometry" />
        </mxCell>
        <mxCell id="pbQb53wRpqbdlfqOJr1x-4" value="" style="verticalLabelPosition=bottom;html=1;verticalAlign=top;align=center;strokeColor=none;fillColor=#00188D;shape=mxgraph.azure.server_rack;" parent="1" vertex="1">
          <mxGeometry x="-920" y="297" width="70" height="84" as="geometry" />
        </mxCell>
        <mxCell id="pbQb53wRpqbdlfqOJr1x-9" style="edgeStyle=orthogonalEdgeStyle;rounded=0;orthogonalLoop=1;jettySize=auto;html=1;entryX=0;entryY=0.455;entryDx=0;entryDy=0;entryPerimeter=0;" parent="1" source="pbQb53wRpqbdlfqOJr1x-3" target="l7nKoDrUYivtg7SMq4b7-5" edge="1">
          <mxGeometry relative="1" as="geometry" />
        </mxCell>
        <mxCell id="pbQb53wRpqbdlfqOJr1x-13" value="" style="sketch=0;aspect=fixed;pointerEvents=1;shadow=0;dashed=0;html=1;strokeColor=none;labelPosition=center;verticalLabelPosition=bottom;verticalAlign=top;align=center;fillColor=#00188D;shape=mxgraph.azure.load_balancer_generic;rotation=-90;" parent="1" vertex="1">
          <mxGeometry x="-1160" y="314" width="37" height="50" as="geometry" />
        </mxCell>
        <mxCell id="pbQb53wRpqbdlfqOJr1x-15" style="edgeStyle=orthogonalEdgeStyle;rounded=0;orthogonalLoop=1;jettySize=auto;html=1;entryX=0.5;entryY=0;entryDx=0;entryDy=0;entryPerimeter=0;" parent="1" source="pbQb53wRpqbdlfqOJr1x-1" target="pbQb53wRpqbdlfqOJr1x-13" edge="1">
          <mxGeometry relative="1" as="geometry">
            <Array as="points">
              <mxPoint x="-1216" y="369" />
              <mxPoint x="-1216" y="360" />
              <mxPoint x="-1166" y="360" />
            </Array>
          </mxGeometry>
        </mxCell>
        <mxCell id="pbQb53wRpqbdlfqOJr1x-16" style="edgeStyle=orthogonalEdgeStyle;rounded=0;orthogonalLoop=1;jettySize=auto;html=1;entryX=0;entryY=0.5;entryDx=0;entryDy=0;entryPerimeter=0;" parent="1" source="pbQb53wRpqbdlfqOJr1x-13" target="pbQb53wRpqbdlfqOJr1x-4" edge="1">
          <mxGeometry relative="1" as="geometry" />
        </mxCell>
        <mxCell id="pbQb53wRpqbdlfqOJr1x-24" style="edgeStyle=orthogonalEdgeStyle;rounded=0;orthogonalLoop=1;jettySize=auto;html=1;entryX=0.25;entryY=1;entryDx=0;entryDy=0;" parent="1" source="pbQb53wRpqbdlfqOJr1x-17" target="pbQb53wRpqbdlfqOJr1x-3" edge="1">
          <mxGeometry relative="1" as="geometry" />
        </mxCell>
        <mxCell id="pbQb53wRpqbdlfqOJr1x-17" value="" style="verticalLabelPosition=bottom;html=1;verticalAlign=top;align=center;strokeColor=none;fillColor=#00188D;shape=mxgraph.azure.server_rack;" parent="1" vertex="1">
          <mxGeometry x="-920" y="180.18" width="70" height="84" as="geometry" />
        </mxCell>
        <mxCell id="pbQb53wRpqbdlfqOJr1x-18" value="" style="verticalLabelPosition=bottom;html=1;verticalAlign=top;align=center;strokeColor=none;fillColor=#00188D;shape=mxgraph.azure.server_rack;" parent="1" vertex="1">
          <mxGeometry x="-920" y="418" width="70" height="84" as="geometry" />
        </mxCell>
        <mxCell id="pbQb53wRpqbdlfqOJr1x-19" style="edgeStyle=orthogonalEdgeStyle;rounded=0;orthogonalLoop=1;jettySize=auto;html=1;exitX=1;exitY=0.71;exitDx=0;exitDy=0;exitPerimeter=0;entryX=0;entryY=0.5;entryDx=0;entryDy=0;entryPerimeter=0;" parent="1" source="pbQb53wRpqbdlfqOJr1x-13" target="pbQb53wRpqbdlfqOJr1x-17" edge="1">
          <mxGeometry relative="1" as="geometry" />
        </mxCell>
        <mxCell id="pbQb53wRpqbdlfqOJr1x-20" style="edgeStyle=orthogonalEdgeStyle;rounded=0;orthogonalLoop=1;jettySize=auto;html=1;exitX=0;exitY=0.71;exitDx=0;exitDy=0;exitPerimeter=0;entryX=-0.014;entryY=0.619;entryDx=0;entryDy=0;entryPerimeter=0;" parent="1" source="pbQb53wRpqbdlfqOJr1x-13" target="pbQb53wRpqbdlfqOJr1x-18" edge="1">
          <mxGeometry relative="1" as="geometry" />
        </mxCell>
        <mxCell id="pbQb53wRpqbdlfqOJr1x-23" style="edgeStyle=orthogonalEdgeStyle;rounded=0;orthogonalLoop=1;jettySize=auto;html=1;entryX=0.8;entryY=0.986;entryDx=0;entryDy=0;entryPerimeter=0;" parent="1" source="pbQb53wRpqbdlfqOJr1x-18" target="pbQb53wRpqbdlfqOJr1x-3" edge="1">
          <mxGeometry relative="1" as="geometry" />
        </mxCell>
        <mxCell id="pbQb53wRpqbdlfqOJr1x-25" value="&lt;h1 style=&quot;margin-top: 0px;&quot;&gt;USSD Servers Instances&lt;/h1&gt;" style="text;html=1;whiteSpace=wrap;overflow=hidden;rounded=0;" parent="1" vertex="1">
          <mxGeometry x="-830" y="358" width="180" height="65.82" as="geometry" />
        </mxCell>
        <mxCell id="pbQb53wRpqbdlfqOJr1x-26" value="" style="sketch=0;outlineConnect=0;fontColor=#232F3E;gradientColor=none;fillColor=#000099;strokeColor=none;dashed=0;verticalLabelPosition=bottom;verticalAlign=top;align=center;html=1;fontSize=12;fontStyle=0;aspect=fixed;pointerEvents=1;shape=mxgraph.aws4.user;" parent="1" vertex="1">
          <mxGeometry x="-1390" y="-151.55" width="78" height="78" as="geometry" />
        </mxCell>
        <mxCell id="pbQb53wRpqbdlfqOJr1x-27" value="&lt;h1 style=&quot;margin-top: 0px;&quot;&gt;Users (Web Platform)&lt;/h1&gt;&lt;p&gt;User playing user the web platform.&lt;/p&gt;" style="text;html=1;whiteSpace=wrap;overflow=hidden;rounded=0;" parent="1" vertex="1">
          <mxGeometry x="-1431" y="-250" width="260" height="76" as="geometry" />
        </mxCell>
        <mxCell id="pbQb53wRpqbdlfqOJr1x-28" value="" style="verticalLabelPosition=bottom;html=1;verticalAlign=top;align=center;strokeColor=none;fillColor=#00188D;shape=mxgraph.azure.server_rack;" parent="1" vertex="1">
          <mxGeometry x="-930" y="-220" width="70" height="84" as="geometry" />
        </mxCell>
        <mxCell id="pbQb53wRpqbdlfqOJr1x-29" value="" style="sketch=0;aspect=fixed;pointerEvents=1;shadow=0;dashed=0;html=1;strokeColor=none;labelPosition=center;verticalLabelPosition=bottom;verticalAlign=top;align=center;fillColor=#00188D;shape=mxgraph.azure.load_balancer_generic;rotation=-90;" parent="1" vertex="1">
          <mxGeometry x="-1160" y="-167.55" width="37" height="50" as="geometry" />
        </mxCell>
        <mxCell id="pbQb53wRpqbdlfqOJr1x-30" style="edgeStyle=orthogonalEdgeStyle;rounded=0;orthogonalLoop=1;jettySize=auto;html=1;entryX=0.5;entryY=0;entryDx=0;entryDy=0;entryPerimeter=0;" parent="1" source="pbQb53wRpqbdlfqOJr1x-26" target="pbQb53wRpqbdlfqOJr1x-29" edge="1">
          <mxGeometry relative="1" as="geometry" />
        </mxCell>
        <mxCell id="pbQb53wRpqbdlfqOJr1x-31" style="edgeStyle=orthogonalEdgeStyle;rounded=0;orthogonalLoop=1;jettySize=auto;html=1;entryX=0;entryY=0.5;entryDx=0;entryDy=0;entryPerimeter=0;" parent="1" source="pbQb53wRpqbdlfqOJr1x-29" target="pbQb53wRpqbdlfqOJr1x-28" edge="1">
          <mxGeometry relative="1" as="geometry" />
        </mxCell>
        <mxCell id="pbQb53wRpqbdlfqOJr1x-32" value="" style="verticalLabelPosition=bottom;html=1;verticalAlign=top;align=center;strokeColor=none;fillColor=#00188D;shape=mxgraph.azure.server_rack;" parent="1" vertex="1">
          <mxGeometry x="-880" y="-356" width="70" height="84" as="geometry" />
        </mxCell>
        <mxCell id="pbQb53wRpqbdlfqOJr1x-36" style="edgeStyle=orthogonalEdgeStyle;rounded=0;orthogonalLoop=1;jettySize=auto;html=1;entryX=1;entryY=0.175;entryDx=0;entryDy=0;entryPerimeter=0;" parent="1" source="pbQb53wRpqbdlfqOJr1x-33" target="pbQb53wRpqbdlfqOJr1x-37" edge="1">
          <mxGeometry relative="1" as="geometry">
            <mxPoint x="-830" y="30" as="targetPoint" />
          </mxGeometry>
        </mxCell>
        <mxCell id="pbQb53wRpqbdlfqOJr1x-33" value="" style="verticalLabelPosition=bottom;html=1;verticalAlign=top;align=center;strokeColor=none;fillColor=#00188D;shape=mxgraph.azure.server_rack;" parent="1" vertex="1">
          <mxGeometry x="-1000" y="-77.00000000000001" width="70" height="84" as="geometry" />
        </mxCell>
        <mxCell id="pbQb53wRpqbdlfqOJr1x-34" style="edgeStyle=orthogonalEdgeStyle;rounded=0;orthogonalLoop=1;jettySize=auto;html=1;exitX=1;exitY=0.71;exitDx=0;exitDy=0;exitPerimeter=0;entryX=0;entryY=0.5;entryDx=0;entryDy=0;entryPerimeter=0;" parent="1" source="pbQb53wRpqbdlfqOJr1x-29" target="pbQb53wRpqbdlfqOJr1x-32" edge="1">
          <mxGeometry relative="1" as="geometry" />
        </mxCell>
        <mxCell id="pbQb53wRpqbdlfqOJr1x-35" style="edgeStyle=orthogonalEdgeStyle;rounded=0;orthogonalLoop=1;jettySize=auto;html=1;exitX=0;exitY=0.71;exitDx=0;exitDy=0;exitPerimeter=0;entryX=-0.014;entryY=0.619;entryDx=0;entryDy=0;entryPerimeter=0;" parent="1" source="pbQb53wRpqbdlfqOJr1x-29" target="pbQb53wRpqbdlfqOJr1x-33" edge="1">
          <mxGeometry relative="1" as="geometry" />
        </mxCell>
        <mxCell id="pbQb53wRpqbdlfqOJr1x-37" value="COM" style="whiteSpace=wrap;html=1;aspect=fixed;" parent="1" vertex="1">
          <mxGeometry x="-950" y="77.09" width="80" height="80" as="geometry" />
        </mxCell>
        <mxCell id="pbQb53wRpqbdlfqOJr1x-38" style="edgeStyle=orthogonalEdgeStyle;rounded=0;orthogonalLoop=1;jettySize=auto;html=1;entryX=1;entryY=0.638;entryDx=0;entryDy=0;entryPerimeter=0;" parent="1" source="pbQb53wRpqbdlfqOJr1x-28" target="pbQb53wRpqbdlfqOJr1x-37" edge="1">
          <mxGeometry relative="1" as="geometry" />
        </mxCell>
        <mxCell id="pbQb53wRpqbdlfqOJr1x-39" style="edgeStyle=orthogonalEdgeStyle;rounded=0;orthogonalLoop=1;jettySize=auto;html=1;exitX=0.5;exitY=1;exitDx=0;exitDy=0;exitPerimeter=0;entryX=0.988;entryY=0.913;entryDx=0;entryDy=0;entryPerimeter=0;" parent="1" source="pbQb53wRpqbdlfqOJr1x-32" target="pbQb53wRpqbdlfqOJr1x-37" edge="1">
          <mxGeometry relative="1" as="geometry" />
        </mxCell>
        <mxCell id="pbQb53wRpqbdlfqOJr1x-40" style="edgeStyle=orthogonalEdgeStyle;rounded=0;orthogonalLoop=1;jettySize=auto;html=1;entryX=0.5;entryY=0;entryDx=0;entryDy=0;entryPerimeter=0;" parent="1" source="pbQb53wRpqbdlfqOJr1x-37" target="pbQb53wRpqbdlfqOJr1x-13" edge="1">
          <mxGeometry relative="1" as="geometry" />
        </mxCell>
        <mxCell id="pbQb53wRpqbdlfqOJr1x-41" value="&lt;h1 style=&quot;margin-top: 0px;&quot;&gt;External Provider (IPSec)&lt;/h1&gt;" style="text;html=1;whiteSpace=wrap;overflow=hidden;rounded=0;" parent="1" vertex="1">
          <mxGeometry x="-660" y="-3" width="295" height="43" as="geometry" />
        </mxCell>
      </root>
    </mxGraphModel>
  </diagram>
</mxfile>
